<?xml version="1.0" encoding="UTF-8" standalone="no"?>
<svg width="512" height="512" viewBox="0 0 512 512" fill="none" xmlns="http://www.w3.org/2000/svg">
  <rect width="512" height="512" rx="128" fill="#1E40AF"/>
  <path d="M256 96C223.2 96 192 108.8 168 132.8C144 156.8 132 188 132 220.8C132 246.4 140 270.4 156 292.8C172 315.2 184 340.8 184 368V384C184 393.6 188 401.6 196 408C204 414.4 212 416 220 416H292C300 416 308 413.6 316 408C324 401.6 328 393.6 328 384V368C328 340.8 340 315.2 356 292.8C372 270.4 380 246.4 380 220.8C380 188 368 156.8 344 132.8C320 108.8 288.8 96 256 96ZM292 384H220V368H292V384ZM292 348H220C216 320.8 204 296 188 273.6C172 251.2 164 236 164 220.8C164 196 172.8 172.8 192 153.6C211.2 134.4 232.8 126.4 256 126.4C279.2 126.4 300.8 134.4 320 153.6C339.2 172.8 348 196 348 220.8C348 236 340 251.2 324 273.6C308 296 296 320.8 292 348Z" fill="white"/>
</svg>
